<mxfile host="app.diagrams.net" agent="Mozilla/5.0 (Windows NT 10.0; Win64; x64) AppleWebKit/537.36 (KHTML, like Gecko) Chrome/128.0.0.0 Safari/537.36 OPR/114.0.0.0" version="25.0.3">
  <diagram name="Page-1" id="42789a77-a242-8287-6e28-9cd8cfd52e62">
    <mxGraphModel dx="1561" dy="674" grid="1" gridSize="10" guides="1" tooltips="1" connect="1" arrows="1" fold="1" page="1" pageScale="1" pageWidth="1100" pageHeight="850" background="none" math="0" shadow="0">
      <root>
        <mxCell id="0" />
        <mxCell id="1" parent="0" />
        <mxCell id="40zkzAZCoLJtN4qochw4-1" value="Guest" style="shape=umlActor;verticalLabelPosition=bottom;verticalAlign=top;html=1;outlineConnect=0;" vertex="1" parent="1">
          <mxGeometry x="255" y="130" width="30" height="60" as="geometry" />
        </mxCell>
        <mxCell id="40zkzAZCoLJtN4qochw4-3" value="Admin" style="shape=umlActor;verticalLabelPosition=bottom;verticalAlign=top;html=1;outlineConnect=0;" vertex="1" parent="1">
          <mxGeometry x="255" y="270" width="30" height="60" as="geometry" />
        </mxCell>
        <mxCell id="40zkzAZCoLJtN4qochw4-4" value="Registered user" style="shape=umlActor;verticalLabelPosition=bottom;verticalAlign=top;html=1;outlineConnect=0;" vertex="1" parent="1">
          <mxGeometry x="590" y="200" width="30" height="60" as="geometry" />
        </mxCell>
        <mxCell id="40zkzAZCoLJtN4qochw4-7" value="Login" style="ellipse;whiteSpace=wrap;html=1;" vertex="1" parent="1">
          <mxGeometry x="330" y="380" width="100" height="60" as="geometry" />
        </mxCell>
        <mxCell id="40zkzAZCoLJtN4qochw4-8" value="Logout&lt;span style=&quot;color: rgba(0, 0, 0, 0); font-family: monospace; font-size: 0px; text-align: start; text-wrap: nowrap;&quot;&gt;%3CmxGraphModel%3E%3Croot%3E%3CmxCell%20id%3D%220%22%2F%3E%3CmxCell%20id%3D%221%22%20parent%3D%220%22%2F%3E%3CmxCell%20id%3D%222%22%20value%3D%22Login%22%20style%3D%22ellipse%3BwhiteSpace%3Dwrap%3Bhtml%3D1%3B%22%20vertex%3D%221%22%20parent%3D%221%22%3E%3CmxGeometry%20x%3D%22110%22%20y%3D%22160%22%20width%3D%22100%22%20height%3D%2260%22%20as%3D%22geometry%22%2F%3E%3C%2FmxCell%3E%3C%2Froot%3E%3C%2FmxGraphModel%3E&lt;/span&gt;" style="ellipse;whiteSpace=wrap;html=1;" vertex="1" parent="1">
          <mxGeometry x="510" y="350" width="100" height="60" as="geometry" />
        </mxCell>
        <mxCell id="40zkzAZCoLJtN4qochw4-9" value="Sign-up" style="ellipse;whiteSpace=wrap;html=1;" vertex="1" parent="1">
          <mxGeometry x="140" y="50" width="100" height="60" as="geometry" />
        </mxCell>
        <mxCell id="40zkzAZCoLJtN4qochw4-10" value="List followed cities" style="ellipse;whiteSpace=wrap;html=1;" vertex="1" parent="1">
          <mxGeometry x="480" y="40" width="100" height="60" as="geometry" />
        </mxCell>
        <mxCell id="40zkzAZCoLJtN4qochw4-11" value="View current weather" style="ellipse;whiteSpace=wrap;html=1;" vertex="1" parent="1">
          <mxGeometry x="320" y="50" width="100" height="60" as="geometry" />
        </mxCell>
        <mxCell id="40zkzAZCoLJtN4qochw4-12" value="View weather prediction" style="ellipse;whiteSpace=wrap;html=1;" vertex="1" parent="1">
          <mxGeometry x="760" y="160" width="100" height="60" as="geometry" />
        </mxCell>
        <mxCell id="40zkzAZCoLJtN4qochw4-13" value="Get historical data" style="ellipse;whiteSpace=wrap;html=1;" vertex="1" parent="1">
          <mxGeometry x="760" y="260" width="100" height="60" as="geometry" />
        </mxCell>
        <mxCell id="40zkzAZCoLJtN4qochw4-14" value="View past extreme weather events" style="ellipse;whiteSpace=wrap;html=1;" vertex="1" parent="1">
          <mxGeometry x="670" y="340" width="100" height="60" as="geometry" />
        </mxCell>
        <mxCell id="40zkzAZCoLJtN4qochw4-15" value="" style="endArrow=classic;html=1;rounded=0;" edge="1" parent="1" source="40zkzAZCoLJtN4qochw4-4" target="40zkzAZCoLJtN4qochw4-10">
          <mxGeometry width="50" height="50" relative="1" as="geometry">
            <mxPoint x="410" y="310" as="sourcePoint" />
            <mxPoint x="460" y="260" as="targetPoint" />
          </mxGeometry>
        </mxCell>
        <mxCell id="40zkzAZCoLJtN4qochw4-16" value="" style="endArrow=classic;html=1;rounded=0;" edge="1" parent="1" source="40zkzAZCoLJtN4qochw4-4" target="40zkzAZCoLJtN4qochw4-12">
          <mxGeometry width="50" height="50" relative="1" as="geometry">
            <mxPoint x="601" y="210" as="sourcePoint" />
            <mxPoint x="553" y="109" as="targetPoint" />
          </mxGeometry>
        </mxCell>
        <mxCell id="40zkzAZCoLJtN4qochw4-17" value="" style="endArrow=classic;html=1;rounded=0;" edge="1" parent="1" source="40zkzAZCoLJtN4qochw4-4" target="40zkzAZCoLJtN4qochw4-13">
          <mxGeometry width="50" height="50" relative="1" as="geometry">
            <mxPoint x="611" y="220" as="sourcePoint" />
            <mxPoint x="563" y="119" as="targetPoint" />
          </mxGeometry>
        </mxCell>
        <mxCell id="40zkzAZCoLJtN4qochw4-18" value="" style="endArrow=classic;html=1;rounded=0;" edge="1" parent="1" source="40zkzAZCoLJtN4qochw4-4" target="40zkzAZCoLJtN4qochw4-14">
          <mxGeometry width="50" height="50" relative="1" as="geometry">
            <mxPoint x="621" y="230" as="sourcePoint" />
            <mxPoint x="573" y="129" as="targetPoint" />
          </mxGeometry>
        </mxCell>
        <mxCell id="40zkzAZCoLJtN4qochw4-19" value="" style="endArrow=classic;html=1;rounded=0;" edge="1" parent="1" source="40zkzAZCoLJtN4qochw4-1" target="40zkzAZCoLJtN4qochw4-9">
          <mxGeometry width="50" height="50" relative="1" as="geometry">
            <mxPoint x="631" y="240" as="sourcePoint" />
            <mxPoint x="583" y="139" as="targetPoint" />
          </mxGeometry>
        </mxCell>
        <mxCell id="40zkzAZCoLJtN4qochw4-20" value="" style="endArrow=classic;html=1;rounded=0;" edge="1" parent="1" source="40zkzAZCoLJtN4qochw4-4" target="40zkzAZCoLJtN4qochw4-11">
          <mxGeometry width="50" height="50" relative="1" as="geometry">
            <mxPoint x="641" y="250" as="sourcePoint" />
            <mxPoint x="593" y="149" as="targetPoint" />
          </mxGeometry>
        </mxCell>
        <mxCell id="40zkzAZCoLJtN4qochw4-21" value="" style="endArrow=classic;html=1;rounded=0;" edge="1" parent="1" source="40zkzAZCoLJtN4qochw4-1" target="40zkzAZCoLJtN4qochw4-11">
          <mxGeometry width="50" height="50" relative="1" as="geometry">
            <mxPoint x="651" y="260" as="sourcePoint" />
            <mxPoint x="603" y="159" as="targetPoint" />
          </mxGeometry>
        </mxCell>
        <mxCell id="40zkzAZCoLJtN4qochw4-22" value="" style="endArrow=classic;html=1;rounded=0;" edge="1" parent="1" source="40zkzAZCoLJtN4qochw4-4" target="40zkzAZCoLJtN4qochw4-7">
          <mxGeometry width="50" height="50" relative="1" as="geometry">
            <mxPoint x="661" y="270" as="sourcePoint" />
            <mxPoint x="613" y="169" as="targetPoint" />
          </mxGeometry>
        </mxCell>
        <mxCell id="40zkzAZCoLJtN4qochw4-23" value="" style="endArrow=classic;html=1;rounded=0;" edge="1" parent="1" source="40zkzAZCoLJtN4qochw4-4" target="40zkzAZCoLJtN4qochw4-8">
          <mxGeometry width="50" height="50" relative="1" as="geometry">
            <mxPoint x="671" y="280" as="sourcePoint" />
            <mxPoint x="623" y="179" as="targetPoint" />
          </mxGeometry>
        </mxCell>
        <mxCell id="40zkzAZCoLJtN4qochw4-24" value="" style="endArrow=classic;html=1;rounded=0;" edge="1" parent="1" source="40zkzAZCoLJtN4qochw4-3" target="40zkzAZCoLJtN4qochw4-7">
          <mxGeometry width="50" height="50" relative="1" as="geometry">
            <mxPoint x="681" y="290" as="sourcePoint" />
            <mxPoint x="633" y="189" as="targetPoint" />
          </mxGeometry>
        </mxCell>
        <mxCell id="40zkzAZCoLJtN4qochw4-26" value="" style="endArrow=classic;html=1;rounded=0;" edge="1" parent="1" source="40zkzAZCoLJtN4qochw4-3" target="40zkzAZCoLJtN4qochw4-8">
          <mxGeometry width="50" height="50" relative="1" as="geometry">
            <mxPoint x="691" y="300" as="sourcePoint" />
            <mxPoint x="643" y="199" as="targetPoint" />
          </mxGeometry>
        </mxCell>
        <mxCell id="40zkzAZCoLJtN4qochw4-27" value="Update measurements" style="ellipse;whiteSpace=wrap;html=1;" vertex="1" parent="1">
          <mxGeometry x="60" y="210" width="100" height="60" as="geometry" />
        </mxCell>
        <mxCell id="40zkzAZCoLJtN4qochw4-28" value="Update extreme weather events" style="ellipse;whiteSpace=wrap;html=1;" vertex="1" parent="1">
          <mxGeometry x="50" y="310" width="100" height="60" as="geometry" />
        </mxCell>
        <mxCell id="40zkzAZCoLJtN4qochw4-29" value="Update extreme weather event threshold" style="ellipse;whiteSpace=wrap;html=1;" vertex="1" parent="1">
          <mxGeometry x="120" y="380" width="100" height="60" as="geometry" />
        </mxCell>
        <mxCell id="40zkzAZCoLJtN4qochw4-31" value="" style="endArrow=classic;html=1;rounded=0;" edge="1" parent="1" source="40zkzAZCoLJtN4qochw4-3" target="40zkzAZCoLJtN4qochw4-27">
          <mxGeometry width="50" height="50" relative="1" as="geometry">
            <mxPoint x="410" y="410" as="sourcePoint" />
            <mxPoint x="460" y="360" as="targetPoint" />
          </mxGeometry>
        </mxCell>
        <mxCell id="40zkzAZCoLJtN4qochw4-32" value="" style="endArrow=classic;html=1;rounded=0;" edge="1" parent="1" source="40zkzAZCoLJtN4qochw4-3" target="40zkzAZCoLJtN4qochw4-28">
          <mxGeometry width="50" height="50" relative="1" as="geometry">
            <mxPoint x="410" y="410" as="sourcePoint" />
            <mxPoint x="460" y="360" as="targetPoint" />
          </mxGeometry>
        </mxCell>
        <mxCell id="40zkzAZCoLJtN4qochw4-33" value="" style="endArrow=classic;html=1;rounded=0;" edge="1" parent="1" source="40zkzAZCoLJtN4qochw4-3" target="40zkzAZCoLJtN4qochw4-29">
          <mxGeometry width="50" height="50" relative="1" as="geometry">
            <mxPoint x="280" y="450" as="sourcePoint" />
            <mxPoint x="155" y="347" as="targetPoint" />
          </mxGeometry>
        </mxCell>
        <mxCell id="40zkzAZCoLJtN4qochw4-35" value="Follow new city" style="ellipse;whiteSpace=wrap;html=1;" vertex="1" parent="1">
          <mxGeometry x="610" y="40" width="100" height="60" as="geometry" />
        </mxCell>
        <mxCell id="40zkzAZCoLJtN4qochw4-36" value="" style="endArrow=classic;html=1;rounded=0;" edge="1" parent="1" source="40zkzAZCoLJtN4qochw4-4" target="40zkzAZCoLJtN4qochw4-35">
          <mxGeometry width="50" height="50" relative="1" as="geometry">
            <mxPoint x="410" y="260" as="sourcePoint" />
            <mxPoint x="460" y="210" as="targetPoint" />
          </mxGeometry>
        </mxCell>
        <mxCell id="40zkzAZCoLJtN4qochw4-37" value="Unfollow city" style="ellipse;whiteSpace=wrap;html=1;" vertex="1" parent="1">
          <mxGeometry x="720" y="80" width="100" height="60" as="geometry" />
        </mxCell>
        <mxCell id="40zkzAZCoLJtN4qochw4-38" value="" style="endArrow=classic;html=1;rounded=0;" edge="1" parent="1" source="40zkzAZCoLJtN4qochw4-4" target="40zkzAZCoLJtN4qochw4-37">
          <mxGeometry width="50" height="50" relative="1" as="geometry">
            <mxPoint x="660" y="190" as="sourcePoint" />
            <mxPoint x="710" y="140" as="targetPoint" />
          </mxGeometry>
        </mxCell>
      </root>
    </mxGraphModel>
  </diagram>
</mxfile>
